<?xml version="1.0" standalone="no"?>
<!DOCTYPE svg PUBLIC "-//W3C//DTD SVG 20010904//EN"
 "http://www.w3.org/TR/2001/REC-SVG-20010904/DTD/svg10.dtd">
<svg version="1.0" xmlns="http://www.w3.org/2000/svg"
 width="275.000000pt" height="183.000000pt" viewBox="0 0 275.000000 183.000000"
 preserveAspectRatio="xMidYMid meet">

<g transform="translate(0.000000,183.000000) scale(0.100000,-0.100000)"
fill="#000000" stroke="none">
<path d="M0 1574 l0 -256 25 16 c13 9 34 16 46 16 12 0 29 7 38 15 69 65 119
106 136 111 11 3 35 20 53 38 18 17 35 30 37 29 8 -4 74 27 80 37 3 5 19 10
36 10 16 0 29 5 29 10 0 6 7 10 15 10 9 0 18 7 21 15 4 8 18 15 34 15 16 0 35
7 44 15 8 8 21 15 29 15 9 0 42 7 74 15 32 8 78 17 103 19 25 2 79 9 120 15
41 5 109 13 150 16 41 3 92 10 113 16 20 5 54 10 75 10 20 0 150 3 287 5 258
6 383 -4 545 -42 36 -8 79 -17 95 -20 17 -3 38 -10 47 -15 9 -5 25 -9 36 -9
11 0 25 -7 33 -16 7 -8 31 -25 53 -36 23 -11 43 -23 46 -27 7 -8 37 -26 77
-47 18 -9 37 -22 44 -30 6 -8 16 -14 22 -14 13 0 97 -85 97 -99 0 -6 5 -11 10
-11 6 0 24 -13 42 -30 58 -56 58 -55 58 215 l0 245 -1375 0 -1375 0 0 -256z"/>
<path d="M1566 1593 c-13 -13 -5 -25 14 -20 31 8 35 -12 5 -23 -34 -13 -44
-12 -25 1 12 9 11 10 -7 6 -13 -3 -26 -1 -29 4 -7 13 -24 11 -24 -2 0 -6 9
-13 20 -16 11 -3 20 -8 20 -12 0 -7 31 -6 115 3 29 3 44 2 37 -3 -11 -7 -11
-9 2 -14 10 -4 16 -1 16 8 0 7 9 17 20 20 24 8 25 18 4 40 -10 9 -23 13 -33 9
-52 -21 -109 -25 -97 -5 6 8 -30 12 -38 4z"/>
<path d="M1336 1543 c-15 -4 -16 -7 -5 -14 11 -7 10 -9 -5 -9 -17 0 -15 -15 2
-15 4 0 13 -4 21 -9 9 -6 12 -5 8 1 -4 6 2 13 12 16 14 3 18 1 14 -9 -3 -8 -1
-14 5 -14 6 0 12 6 15 13 3 9 7 9 20 -2 9 -7 24 -11 33 -7 12 5 14 1 8 -16 -5
-16 -3 -20 10 -15 8 3 18 2 21 -3 4 -7 13 -6 26 0 16 9 21 7 29 -15 6 -16 14
-23 22 -19 6 4 8 3 5 -4 -5 -7 -16 -7 -36 1 -33 12 -82 -3 -80 -25 0 -8 2 -9
5 -2 5 13 75 10 102 -4 9 -5 23 -7 30 -5 6 3 12 0 12 -6 0 -14 -70 -11 -70 3
0 6 -7 3 -14 -7 -10 -13 -15 -14 -18 -5 -7 21 -83 -7 -96 -36 -6 -14 -23 -33
-37 -42 -24 -16 -26 -16 -40 2 -19 25 -18 33 3 41 9 4 26 15 36 25 11 10 23
18 28 18 12 0 10 38 -4 46 -7 4 -8 3 -4 -5 6 -8 0 -10 -21 -6 -25 5 -26 4 -5
-4 27 -13 29 -25 3 -16 -15 5 -18 2 -14 -14 5 -20 -27 -38 -47 -26 -5 3 -10 1
-10 -4 0 -6 -6 -11 -14 -11 -8 0 -17 -4 -20 -9 -3 -4 6 -6 19 -3 14 2 25 0 25
-6 0 -12 -28 -24 -40 -17 -4 3 -6 -3 -3 -13 4 -16 -1 -18 -33 -14 -28 3 -41 0
-51 -14 -12 -17 -13 -17 -14 2 -1 10 -1 23 0 28 1 5 -5 4 -13 -4 -9 -7 -16
-18 -16 -25 0 -7 -10 -16 -22 -20 l-23 -8 24 -4 c13 -3 27 0 30 6 4 6 12 7 21
1 11 -7 12 -10 2 -10 -7 0 -11 -4 -8 -9 9 -14 -22 -34 -40 -27 -15 6 -15 4 -3
-11 7 -10 9 -15 4 -10 -10 9 -57 -32 -49 -44 3 -5 -2 -6 -10 -3 -8 3 -25 -4
-37 -15 -25 -23 -17 -26 40 -15 21 4 30 11 27 20 -3 8 0 11 10 7 9 -3 12 0 9
8 -6 16 31 43 40 29 3 -5 12 -7 20 -3 11 4 13 1 9 -11 -4 -12 0 -16 15 -16
l21 0 -22 -25 c-11 -13 -26 -22 -32 -19 -6 3 -4 0 5 -8 17 -14 22 -48 7 -48
-5 0 -8 8 -6 18 2 12 -5 18 -22 20 -24 2 -24 2 -6 -12 18 -14 16 -16 -23 -32
-22 -9 -41 -22 -41 -30 0 -7 -8 -18 -17 -23 -10 -6 -13 -11 -6 -11 13 0 5 -40
-9 -40 -5 0 -7 -4 -4 -9 3 -5 0 -13 -7 -19 -9 -8 -12 0 -11 34 0 28 6 48 16
57 15 10 15 14 2 25 -12 11 -14 9 -14 -8 0 -15 -8 -22 -30 -26 -29 -6 -29 -7
-15 -35 19 -36 19 -39 -6 -39 -11 0 -18 -4 -15 -9 8 -12 -53 -23 -90 -15 -16
3 -40 1 -54 -4 -23 -9 -24 -10 -5 -17 11 -4 32 -13 47 -21 34 -18 47 -18 70 3
13 12 21 14 26 6 10 -15 208 -9 227 7 8 7 15 22 15 34 1 19 2 19 11 4 6 -10
22 -18 37 -18 16 0 33 -5 39 -11 7 -7 13 -7 17 0 4 5 12 8 19 5 7 -2 22 4 32
16 13 15 31 20 66 20 59 0 82 -25 99 -105 14 -66 -4 -111 -48 -121 -15 -3 -36
-9 -47 -12 -11 -3 -29 -6 -40 -6 -11 0 -23 -5 -27 -10 -6 -8 -11 -7 -17 3 -7
11 -9 11 -14 0 -5 -12 -7 -12 -15 -1 -7 11 -10 11 -15 -2 -4 -9 -11 -16 -17
-16 -6 0 -8 5 -5 10 11 17 -4 11 -27 -12 l-21 -21 21 5 c12 3 23 1 25 -6 3 -8
9 -7 20 3 11 8 17 9 17 3 0 -7 17 -11 44 -9 24 1 42 5 40 8 -2 4 14 6 36 5 22
0 40 -5 40 -10 0 -6 6 -4 12 2 10 10 10 15 -2 22 -8 5 -10 10 -5 11 52 7 65 7
65 1 0 -12 58 -13 65 -1 5 7 13 5 25 -6 10 -9 28 -17 41 -17 13 -1 30 -6 37
-12 10 -7 16 -5 23 5 7 12 9 11 9 -3 0 -16 3 -16 35 -2 31 13 35 13 35 -1 0
-8 4 -15 9 -15 5 0 8 7 7 16 -1 11 8 18 24 19 33 3 50 -4 50 -21 0 -19 16 -18
24 2 3 8 2 12 -3 9 -5 -3 -12 4 -16 15 -3 11 -9 19 -13 18 -4 -2 -18 5 -32 14
-15 9 -60 19 -109 23 -46 4 -95 11 -109 16 -21 8 -24 14 -18 42 4 17 10 43 12
56 9 44 34 81 73 106 41 28 93 42 89 25 -3 -10 19 -25 77 -51 17 -8 39 -22 49
-31 22 -20 51 -23 61 -7 5 6 12 4 20 -8 13 -17 14 -17 33 0 20 18 20 18 24 0
3 -13 8 -8 15 17 6 20 6 39 2 45 -14 15 -10 25 10 25 10 0 24 -7 31 -15 7 -9
21 -13 31 -10 11 4 19 2 19 -3 0 -5 -19 -13 -42 -16 -35 -6 -40 -9 -25 -17 9
-6 17 -14 17 -19 0 -6 -8 -10 -17 -11 -10 0 -6 -4 10 -9 15 -5 125 -11 245
-14 119 -3 256 -9 305 -12 l87 -7 0 197 c0 220 6 205 -79 185 -41 -9 -49 -7
-102 21 -41 22 -65 29 -83 24 -15 -3 -23 -11 -19 -17 4 -6 0 -8 -9 -5 -8 4
-15 1 -15 -7 0 -9 10 -12 33 -8 18 3 45 2 61 -2 24 -6 25 -8 10 -16 -9 -6 -17
-16 -17 -24 0 -8 -8 -19 -17 -24 -10 -6 -13 -11 -8 -11 18 -1 -19 -20 -39 -20
-11 0 -42 -11 -71 -24 -28 -14 -74 -34 -102 -45 l-51 -20 -21 25 c-11 13 -21
32 -21 41 0 9 -12 32 -27 51 -21 28 -23 34 -9 29 43 -17 53 29 14 66 -10 10
-18 25 -18 34 0 21 -53 70 -58 54 -6 -17 -32 6 -32 29 0 21 -22 39 -81 69 -36
18 -48 30 -53 53 -3 16 -10 27 -15 24 -5 -4 -17 1 -25 10 -9 8 -16 12 -16 8 0
-4 -16 8 -35 26 -23 22 -39 31 -43 24 -10 -15 -52 -24 -52 -12 0 6 -10 4 -22
-5 -13 -8 -22 -21 -20 -28 2 -10 0 -10 -12 0 -10 8 -34 12 -66 9 -28 -3 -51 0
-53 5 -5 16 -50 16 -69 0 -13 -12 -20 -12 -37 -1 -26 16 -27 25 -3 31 15 4 15
5 0 6 -9 0 -19 -3 -23 -9 -3 -5 -15 -6 -29 0 -12 4 -29 4 -36 0 -16 -10 -33
-3 -25 11 4 5 5 8 3 8 -2 -1 -12 -4 -22 -6z m494 -45 c0 -10 -19 -9 -45 2 -16
7 -14 8 12 7 18 -1 33 -5 33 -9z m-103 -44 c-3 -3 -12 -4 -19 -1 -8 3 -5 6 6
6 11 1 17 -2 13 -5z m243 -88 c0 -11 -19 -15 -25 -6 -3 5 1 10 9 10 9 0 16 -2
16 -4z m-342 -49 c-11 -9 -14 -18 -8 -27 12 -19 3 -30 -21 -25 -16 3 -19 1
-14 -13 4 -9 8 -22 8 -29 0 -6 7 -9 16 -6 11 3 10 0 -4 -12 -19 -15 -21 -14
-32 12 -6 15 -9 31 -6 36 2 4 0 7 -6 7 -5 0 -12 -4 -15 -9 -3 -5 -14 -7 -24
-5 -9 3 -30 -7 -46 -21 -16 -14 -24 -25 -18 -25 6 0 14 4 17 10 8 13 34 -11
28 -27 -3 -6 -11 -9 -19 -6 -10 3 -14 -2 -14 -18 0 -13 -4 -19 -8 -14 -12 17
-53 22 -95 11 -20 -5 -27 -3 -22 4 4 7 -2 6 -14 -2 -12 -7 -21 -16 -21 -21 0
-4 -4 -5 -10 -2 -12 7 -14 26 -2 22 4 -1 9 3 11 8 8 18 26 33 34 28 4 -2 7 1
7 7 0 6 4 9 9 6 4 -3 17 1 27 10 18 15 18 15 -3 9 -26 -7 -33 3 -22 33 5 13
17 22 29 22 12 0 30 5 41 11 32 16 61 20 76 8 7 -6 11 -15 8 -18 -2 -4 9 -8
25 -8 17 0 30 4 30 9 0 5 8 8 17 6 10 -2 18 3 18 10 0 7 7 17 15 22 22 14 28
11 8 -3z m172 3 c0 -5 -2 -10 -4 -10 -3 0 -8 5 -11 10 -3 6 -1 10 4 10 6 0 11
-4 11 -10z m-90 -30 c0 -5 -6 -10 -14 -10 -8 0 -18 5 -21 10 -3 6 3 10 14 10
12 0 21 -4 21 -10z m44 -6 c4 -10 1 -14 -6 -12 -15 5 -23 28 -10 28 5 0 13 -7
16 -16z m96 -8 c0 -3 -4 -8 -10 -11 -5 -3 -10 -1 -10 4 0 6 5 11 10 11 6 0 10
-2 10 -4z m-604 -53 c-3 -7 -1 -13 4 -13 6 0 10 -4 10 -10 0 -17 -20 -11 -27
8 -4 9 -11 20 -17 24 -6 4 -1 6 12 5 14 -1 21 -6 18 -14z m281 -25 c-3 -8 -6
-5 -6 6 -1 11 2 17 5 13 3 -3 4 -12 1 -19z m-212 2 c4 -6 -6 -10 -22 -9 -25 0
-26 1 -8 9 11 5 21 9 22 9 1 1 5 -3 8 -9z m28 -72 c-4 -7 -6 -20 -5 -28 2 -10
-5 -16 -17 -16 -18 0 -18 2 -5 28 8 15 19 28 25 28 6 0 7 -6 2 -12z m87 3 c0
-5 -6 -12 -12 -15 -7 -3 -3 -3 10 0 21 5 22 4 12 -13 -17 -26 -60 -46 -60 -27
0 8 -6 11 -15 8 -9 -4 -15 0 -15 10 0 9 8 16 19 16 10 0 24 7 31 15 14 17 30
20 30 6z m190 5 c0 -2 -8 -10 -17 -17 -16 -13 -17 -12 -4 4 13 16 21 21 21 13z
m10 -36 c0 -5 -7 -10 -16 -10 -8 0 -12 5 -9 10 3 6 10 10 16 10 5 0 9 -4 9
-10z m-121 -23 c13 4 14 3 1 -5 -8 -6 -18 -8 -22 -6 -4 3 -8 -1 -8 -9 0 -8 -8
-21 -17 -28 -16 -12 -17 -12 -6 1 13 17 12 37 -1 59 -7 11 -4 11 13 -2 13 -8
31 -13 40 -10z m16 -97 c-3 -5 -11 -10 -16 -10 -6 0 -7 5 -4 10 3 6 11 10 16
10 6 0 7 -4 4 -10z m6 -33 c-10 -9 -11 -8 -5 6 3 10 9 15 12 12 3 -3 0 -11 -7
-18z m679 13 c0 -5 -4 -10 -10 -10 -5 0 -10 5 -10 10 0 6 5 10 10 10 6 0 10
-4 10 -10z m-579 -53 c-10 -9 -11 -8 -5 6 3 10 9 15 12 12 3 -3 0 -11 -7 -18z"/>
<path d="M1486 1275 c-3 -8 -1 -15 4 -15 6 0 10 7 10 15 0 8 -2 15 -4 15 -2 0
-6 -7 -10 -15z"/>
<path d="M1442 1258 c2 -5 8 -9 13 -9 5 0 11 4 13 9 1 5 -4 9 -13 9 -9 0 -14
-4 -13 -9z"/>
<path d="M1280 1472 c0 -5 7 -16 16 -23 14 -12 16 -11 13 5 -4 20 -29 35 -29
18z"/>
<path d="M1339 1463 c-13 -16 -12 -17 4 -4 9 7 17 15 17 17 0 8 -8 3 -21 -13z"/>
<path d="M1370 1469 c0 -5 5 -7 10 -4 6 3 10 8 10 11 0 2 -4 4 -10 4 -5 0 -10
-5 -10 -11z"/>
<path d="M1413 1473 c9 -2 23 -2 30 0 6 3 -1 5 -18 5 -16 0 -22 -2 -12 -5z"/>
<path d="M1245 1430 c-18 -19 -17 -20 6 -20 18 0 25 6 26 20 1 11 -2 20 -6 20
-4 0 -16 -9 -26 -20z"/>
<path d="M1273 1383 c-18 -7 -16 -23 2 -23 8 0 15 7 15 15 0 8 -1 15 -2 14 -2
0 -9 -3 -15 -6z"/>
<path d="M1349 1323 c-12 -15 -12 -16 4 -10 10 4 25 7 33 7 8 0 14 5 14 10 0
16 -36 11 -51 -7z"/>
<path d="M1184 1309 c-6 -10 -2 -11 38 -14 15 -1 25 1 23 5 -7 12 -55 18 -61
9z"/>
<path d="M1125 1210 c4 -6 11 -8 16 -5 14 9 11 15 -7 15 -8 0 -12 -5 -9 -10z"/>
<path d="M1075 1199 c-4 -6 -5 -12 -2 -15 2 -3 7 2 10 11 7 17 1 20 -8 4z"/>
<path d="M0 986 l0 -195 138 5 c75 3 195 10 267 15 72 6 171 10 221 9 108 -2
144 11 141 49 -2 23 -8 27 -51 33 -26 4 -50 9 -53 11 -7 8 115 19 126 12 7 -3
8 0 5 9 -3 9 -14 16 -23 16 -14 1 -14 2 2 15 11 7 25 11 33 8 8 -3 14 -1 14 5
0 17 -81 12 -175 -11 l-90 -22 45 -6 45 -6 -42 -1 c-24 -1 -43 -6 -43 -11 0
-11 -50 -1 -51 10 -1 5 -2 14 -3 19 -3 25 -76 43 -76 20 0 -19 -182 -8 -203
12 -16 14 -16 17 -4 25 8 4 17 18 21 30 6 18 1 25 -23 37 -17 9 -34 22 -38 29
-12 19 -60 47 -81 47 -11 0 -36 7 -55 15 -20 8 -39 15 -42 15 -3 0 -5 -87 -5
-194z m471 -33 c-11 -4 -11 -7 0 -14 22 -13 6 -19 -27 -10 l-29 9 25 10 c14 6
30 11 35 11 6 -1 4 -3 -4 -6z"/>
<path d="M2457 1119 c7 -7 15 -10 18 -7 3 3 -2 9 -12 12 -14 6 -15 5 -6 -5z"/>
<path d="M1068 1040 c-21 -19 -23 -30 -6 -30 6 0 8 3 4 7 -3 4 3 12 15 19 12
6 18 13 13 16 -5 3 -17 -2 -26 -12z"/>
<path d="M993 1036 c-4 -7 -15 -15 -22 -18 -13 -4 -12 -5 1 -10 10 -4 19 2 27
18 11 26 7 33 -6 10z"/>
<path d="M828 943 c7 -3 16 -2 19 1 4 3 -2 6 -13 5 -11 0 -14 -3 -6 -6z"/>
<path d="M1685 869 c-4 -6 -5 -12 -2 -15 2 -3 7 2 10 11 7 17 1 20 -8 4z"/>
<path d="M0 373 l0 -373 1375 0 1375 0 0 365 0 365 -26 0 c-14 0 -32 -7 -40
-15 -15 -15 -39 -11 -66 12 -11 10 -18 11 -23 4 -3 -6 -1 -11 6 -11 7 0 10 -3
7 -6 -9 -8 -177 -10 -172 -2 8 12 -60 -4 -68 -16 -4 -6 -2 -13 3 -17 6 -3 1
-9 -11 -12 -16 -4 -20 -2 -16 9 3 9 -1 14 -12 14 -9 0 -28 3 -42 5 -15 3 -19
2 -10 -2 9 -5 15 -19 15 -33 0 -21 -5 -25 -32 -26 -18 -1 -31 4 -30 10 1 7
-15 11 -40 10 -38 -1 -40 1 -25 13 15 13 15 13 -4 4 -12 -6 -24 -19 -27 -31
-4 -15 3 -24 29 -36 19 -9 41 -13 51 -9 17 7 16 8 -2 15 -11 4 -26 5 -33 3 -7
-3 -10 0 -7 9 8 19 37 19 52 -1 9 -13 8 -20 -4 -33 -13 -15 -13 -18 -2 -18 11
0 11 -2 -1 -10 -22 -14 5 -13 32 1 15 8 19 8 14 0 -4 -6 -2 -11 3 -11 33 0 61
-17 61 -36 0 -9 -5 -12 -11 -8 -21 13 -112 17 -104 5 4 -7 15 -9 26 -6 14 5
17 2 13 -8 -6 -17 -112 -21 -131 -5 -7 6 -22 8 -33 5 -13 -3 -18 -1 -13 6 4 6
0 8 -10 4 -10 -3 -17 -2 -17 3 0 6 -7 10 -16 10 -8 0 -13 3 -11 8 3 4 -8 7
-23 7 -16 1 -27 -2 -24 -6 2 -4 -2 -12 -10 -18 -11 -9 -15 -9 -19 1 -4 10 -6
10 -6 1 -1 -7 -9 -13 -18 -13 -13 0 -14 3 -5 8 8 6 0 14 -25 25 -37 17 -37 17
-15 -1 23 -18 23 -18 -55 -17 -43 1 -84 5 -91 9 -7 4 -14 1 -18 -8 -3 -9 -14
-13 -30 -10 -17 3 -24 0 -24 -11 0 -8 -12 -17 -27 -21 -16 -3 -37 -9 -48 -14
-16 -7 -17 -9 -3 -9 9 -1 19 -7 21 -13 4 -10 8 -9 16 2 5 8 13 11 17 7 4 -4
14 -1 22 5 18 16 40 19 75 12 16 -3 24 -10 20 -17 -4 -6 0 -8 10 -4 10 3 17 3
17 -1 0 -4 17 -6 38 -4 31 3 39 0 47 -19 6 -13 16 -24 23 -25 7 -1 8 0 2 3 -5
2 -7 10 -4 15 4 7 2 8 -4 4 -13 -8 -16 12 -4 31 9 14 57 5 74 -14 9 -11 9 -16
-1 -23 -9 -5 -10 -10 -2 -14 6 -4 16 -4 23 0 7 5 9 2 6 -8 -4 -8 0 -15 7 -15
10 0 11 5 4 19 -6 12 -6 18 1 18 5 0 10 -6 11 -12 0 -7 5 -1 11 15 5 15 14 27
19 27 6 0 8 4 5 9 -3 4 7 8 22 7 15 -1 26 -6 25 -13 -2 -7 4 -10 12 -7 8 4 12
11 8 17 -3 5 -1 7 5 3 6 -3 13 -2 17 4 7 12 52 13 59 2 3 -5 -9 -6 -26 -4 -22
3 -29 1 -24 -7 4 -6 4 -10 -1 -9 -15 4 -53 -23 -53 -39 0 -13 3 -13 15 -3 8 7
15 9 15 4 0 -5 4 -3 8 4 5 7 24 17 43 22 29 8 31 7 17 -4 -10 -7 -14 -16 -10
-20 4 -4 2 -7 -3 -5 -6 1 -23 -4 -40 -11 -16 -7 -35 -12 -41 -11 -7 1 -15 -11
-18 -25 -4 -14 -9 -24 -11 -22 -2 2 1 21 7 41 6 20 9 40 6 43 -10 9 -48 -20
-48 -36 0 -11 -12 -16 -41 -17 -26 -2 -47 -10 -55 -20 -11 -15 -13 -15 -14 -3
0 22 20 39 39 33 12 -3 11 -1 -3 11 -11 9 -25 16 -30 15 -6 0 -5 -3 2 -6 10
-4 8 -9 -7 -20 -12 -8 -19 -19 -16 -24 4 -5 1 -9 -4 -9 -10 0 -12 7 -14 30 0
9 -37 40 -37 32 0 -4 5 -13 10 -18 15 -15 -11 -46 -29 -35 -12 8 -12 12 -2 25
11 13 11 16 -3 16 -9 0 -16 -4 -16 -9 0 -5 -9 -7 -19 -4 -19 5 -19 33 1 33 5
0 6 -5 2 -12 -4 -7 -3 -8 4 -4 21 13 13 31 -14 33 -15 0 -29 5 -33 11 -6 10
-60 14 -74 5 -4 -2 -1 -11 7 -19 17 -16 30 -19 21 -4 -4 6 2 7 17 1 13 -4 29
-6 36 -4 17 7 15 -16 -3 -23 -13 -5 -13 -8 0 -21 8 -8 19 -12 24 -8 5 3 13 0
17 -6 4 -7 3 -9 -3 -6 -5 4 -19 -2 -31 -13 -17 -16 -24 -17 -34 -7 -7 6 -20
13 -28 15 -12 3 -13 1 -2 -9 17 -18 15 -34 -3 -19 -12 10 -15 9 -15 -6 -1 -18
-2 -17 -19 3 -18 21 -51 17 -37 -5 3 -6 2 -13 -3 -16 -5 -3 -12 1 -15 10 -6
15 -8 15 -27 -2 -18 -16 -19 -16 -13 -1 5 14 0 17 -27 17 -26 0 -30 -3 -19
-10 23 -15 6 -12 -28 6 -40 20 -40 30 1 49 25 12 27 14 7 10 -14 -2 -31 -5
-37 -5 -7 0 -13 -7 -13 -15 0 -8 -6 -15 -12 -15 -10 0 -10 -2 -1 -8 7 -4 9
-13 4 -21 -12 -19 -31 -5 -26 20 4 17 2 19 -10 9 -8 -7 -15 -9 -15 -5 0 4 -7
2 -15 -5 -10 -9 -15 -9 -15 -1 0 10 14 15 33 12 5 -1 5 3 2 9 -4 6 -14 9 -22
6 -9 -4 -22 -1 -29 5 -18 15 8 41 45 45 22 2 24 1 10 -9 -14 -10 -14 -14 -3
-25 12 -10 14 -10 14 4 0 10 10 29 23 43 12 14 14 20 5 13 -13 -10 -22 -11
-37 -2 -18 9 -21 8 -21 -7 0 -14 -3 -14 -20 5 -23 24 -40 31 -21 8 13 -16 4
-49 -11 -39 -7 4 -9 -4 -6 -21 4 -18 1 -26 -9 -26 -10 0 -13 -6 -9 -16 3 -8 2
-12 -4 -9 -5 3 -7 19 -4 35 4 17 1 36 -7 47 -17 22 -74 25 -74 3 0 -17 24 -21
42 -7 7 5 16 6 22 3 13 -8 2 -43 -16 -51 -12 -4 -13 -2 -5 7 8 10 3 13 -24 13
-35 0 -35 0 -13 -17 11 -10 17 -18 11 -18 -5 0 -15 6 -22 14 -6 8 -17 14 -23
12 -7 -1 -9 -1 -5 1 14 8 9 21 -9 26 -14 4 -12 5 5 6 12 0 22 5 22 11 0 5 -7
7 -16 3 -9 -3 -20 0 -25 8 -7 12 -9 12 -9 0 0 -8 -8 -20 -17 -27 -17 -12 -16
-13 5 -14 12 0 22 -4 22 -9 0 -5 -11 -8 -25 -6 -14 1 -25 -1 -25 -4 0 -4 -9
-7 -20 -8 -11 -1 -19 4 -17 10 1 7 -4 11 -10 10 -7 -2 -13 6 -13 17 0 11 3 20
8 20 14 -1 42 -27 35 -33 -3 -4 -1 -7 6 -7 8 0 11 7 7 15 -4 10 2 19 16 24 19
7 17 9 -17 14 -43 7 -73 -8 -69 -35 3 -20 -22 -14 -30 8 -6 16 -36 19 -36 3 0
-5 5 -7 12 -3 7 4 8 3 4 -4 -12 -20 -24 -13 -29 16 l-4 27 -2 -27 c0 -16 -6
-28 -12 -28 -6 0 -8 8 -5 18 6 15 5 15 -8 -1 -13 -17 -15 -16 -21 12 -4 17
-13 31 -21 31 -17 0 -19 -17 -2 -22 7 -3 -7 -4 -30 -4 -31 0 -43 5 -48 18 -3
10 -10 18 -15 18 -6 0 -5 -9 2 -22 11 -22 11 -22 -7 -7 -12 11 -34 16 -61 15
-24 -1 -43 1 -43 4 0 3 -12 5 -27 4 -38 -2 -58 19 -36 38 9 7 14 8 10 2 -3 -6
0 -11 7 -11 8 0 12 6 10 12 -3 7 2 18 11 25 8 7 15 9 15 5 0 -5 9 0 20 10 11
10 20 14 20 8 0 -5 -11 -16 -25 -23 -14 -7 -25 -16 -25 -20 0 -11 37 -5 55 10
14 12 18 12 26 -1 5 -8 9 -17 9 -21 0 -15 60 -8 60 6 0 11 11 13 52 9 44 -5
50 -3 45 11 -4 10 -1 16 8 16 8 0 15 4 15 8 0 14 -41 7 -51 -9 -5 -9 -9 -9 -9
-2 0 10 -25 11 -93 4 -12 -2 -3 -26 13 -33 11 -5 8 -7 -9 -7 -17 -1 -22 3 -17
14 3 8 1 15 -5 15 -6 0 -3 7 5 16 20 20 20 34 0 34 -10 0 -14 -6 -11 -14 3 -8
0 -17 -8 -20 -9 -3 -12 0 -8 10 3 7 0 14 -6 14 -6 0 -8 6 -5 14 3 8 15 11 29
9 13 -3 31 0 42 6 15 9 13 10 -12 6 l-30 -6 30 14 c29 13 28 14 -33 11 -63 -2
-63 -2 -45 18 17 20 17 20 -2 17 -11 -2 -26 1 -34 5 -11 7 -13 5 -8 -7 3 -9 2
-19 -3 -22 -6 -4 -10 2 -10 12 0 12 -3 14 -8 6 -8 -13 -52 -14 -52 -2 0 4 14
11 32 14 l32 7 -30 16 c-16 8 -32 20 -36 26 -5 7 -8 6 -8 -3 0 -10 -10 -12
-42 -7 -23 4 -45 11 -48 16 -5 8 -129 7 -170 0 -8 -2 -35 -2 -60 -1 -32 1 -41
4 -30 11 8 5 11 12 7 16 -3 4 -12 2 -19 -4 -7 -5 -37 -13 -67 -16 -48 -5 -56
-3 -69 16 -15 20 -16 20 -29 3 -13 -18 -13 -18 -28 1 -13 17 -14 -24 -15 -353z
m2330 281 c0 -14 -12 -19 -23 -8 -9 9 4 35 14 28 5 -3 9 -12 9 -20z m134 18
c-5 -4 -12 -11 -15 -15 -3 -5 -9 -2 -12 5 -3 9 3 14 15 15 11 1 16 -1 12 -5z
m-42 -20 c-7 -2 -12 -8 -12 -14 0 -6 8 -7 18 -3 13 5 14 4 5 -6 -9 -9 -15 -9
-26 0 -17 13 -62 0 -69 -20 -3 -10 -6 -10 -11 -1 -8 12 40 42 68 42 8 0 15 5
15 11 0 5 5 7 12 3 9 -6 9 -9 0 -12z m95 12 c-3 -3 -12 -4 -19 -1 -8 3 -5 6 6
6 11 1 17 -2 13 -5z m-207 -65 c0 -5 -6 -8 -12 -6 -8 1 -12 -6 -10 -17 3 -15
1 -16 -11 -5 -11 10 -12 16 -3 21 6 4 7 8 1 8 -5 0 -3 4 5 9 15 10 30 6 30
-10z m-1730 -7 c0 -5 -7 -9 -15 -9 -8 0 -12 4 -9 9 3 4 9 8 15 8 5 0 9 -4 9
-8z m115 -34 c6 -6 3 -6 -9 -2 -13 5 -17 4 -13 -3 4 -6 0 -13 -8 -16 -9 -4
-12 -1 -8 9 6 17 -18 19 -36 2 -11 -10 -13 -10 -7 0 4 7 1 12 -8 12 -9 0 -16
4 -16 9 0 11 92 2 105 -11z m-168 -14 c-3 -3 -12 -4 -19 -1 -8 3 -5 6 6 6 11
1 17 -2 13 -5z m1501 -36 c8 -10 5 -13 -13 -13 -18 0 -21 3 -13 13 6 6 12 12
13 12 1 0 7 -6 13 -12z m392 -8 c0 -5 -2 -10 -4 -10 -3 0 -8 5 -11 10 -3 6 -1
10 4 10 6 0 11 -4 11 -10z m-439 -36 c28 1 36 -2 34 -14 -2 -8 -4 -18 -4 -22
-1 -3 -9 -8 -18 -10 -17 -3 -63 40 -63 58 0 5 4 4 8 -2 4 -6 23 -10 43 -10z
m282 -89 c-3 -9 -8 -14 -10 -11 -3 3 -2 9 2 15 9 16 15 13 8 -4z m-123 -5 c-8
-5 -19 -10 -25 -10 -5 0 -3 5 5 10 8 5 20 10 25 10 6 0 3 -5 -5 -10z m-1240
-10 c0 -5 -2 -10 -4 -10 -3 0 -8 5 -11 10 -3 6 -1 10 4 10 6 0 11 -4 11 -10z
m350 -30 c0 -5 -5 -10 -11 -10 -5 0 -7 5 -4 10 3 6 8 10 11 10 2 0 4 -4 4 -10z
m90 -9 c0 -5 -7 -11 -15 -15 -9 -3 -15 0 -15 9 0 8 7 15 15 15 8 0 15 -4 15
-9z m-109 -64 c-6 -8 -9 -17 -6 -21 3 -3 -1 -1 -7 4 -10 9 -10 13 2 20 21 13
24 12 11 -3z"/>
<path d="M1252 699 c2 -7 12 -13 21 -15 23 -3 21 3 -4 17 -17 8 -20 8 -17 -2z"/>
<path d="M1363 699 c-13 -5 -23 -14 -23 -20 0 -8 4 -8 13 -2 6 6 23 9 37 8 14
-1 33 3 43 10 17 12 15 13 -15 13 -18 0 -43 -4 -55 -9z"/>
<path d="M648 693 c-57 -9 -18 -31 42 -25 8 1 30 3 48 5 39 4 68 27 34 27 -12
0 -22 -4 -22 -9 0 -6 -12 -6 -32 0 -18 5 -35 8 -38 8 -3 -1 -17 -4 -32 -6z"/>
<path d="M2226 681 c-16 -6 -14 -10 18 -25 21 -10 40 -15 43 -12 4 3 1 6 -6 6
-7 0 -9 5 -5 12 5 8 0 9 -15 5 -18 -4 -20 -3 -10 9 12 15 5 17 -25 5z"/>
<path d="M790 664 c0 -8 5 -12 10 -9 6 3 10 10 10 16 0 5 -4 9 -10 9 -5 0 -10
-7 -10 -16z"/>
<path d="M2084 649 c-5 -9 25 -20 37 -13 5 3 9 9 9 14 0 10 -39 9 -46 -1z"/>
<path d="M745 640 c-8 -13 5 -13 25 0 13 8 13 10 -2 10 -9 0 -20 -4 -23 -10z"/>
<path d="M1928 643 c12 -2 22 -9 22 -14 0 -6 4 -8 9 -5 5 4 11 2 13 -4 2 -6 9
-6 18 0 11 7 9 11 -13 19 -16 6 -38 10 -50 10 -22 -2 -22 -2 1 -6z"/>
<path d="M926 631 c-13 -5 -16 -10 -8 -15 15 -9 63 4 56 15 -6 11 -21 11 -48
0z"/>
<path d="M1073 626 c3 -8 1 -17 -6 -20 -7 -2 -7 -5 -2 -5 18 -1 38 17 31 28
-10 16 -29 13 -23 -3z"/>
<path d="M2053 623 c-31 -6 -29 -28 3 -31 14 -1 23 2 20 6 -3 5 1 9 9 9 8 0
12 -4 9 -9 -9 -14 13 -9 26 7 10 12 10 15 -3 15 -8 0 -21 2 -29 4 -7 2 -23 1
-35 -1z"/>
<path d="M1140 611 c0 -5 9 -7 20 -4 11 3 20 7 20 9 0 2 -9 4 -20 4 -11 0 -20
-4 -20 -9z"/>
<path d="M1190 609 c0 -4 6 -9 13 -12 8 -3 14 0 14 7 0 7 -6 13 -14 13 -7 0
-13 -4 -13 -8z"/>
<path d="M1526 605 c-3 -8 -1 -15 4 -15 6 0 10 7 10 15 0 8 -2 15 -4 15 -2 0
-6 -7 -10 -15z"/>
<path d="M1840 600 c0 -5 9 -10 20 -10 11 0 20 5 20 10 0 6 -9 10 -20 10 -11
0 -20 -4 -20 -10z"/>
<path d="M2138 573 c6 -2 18 -2 25 0 6 3 1 5 -13 5 -14 0 -19 -2 -12 -5z"/>
<path d="M965 541 c-4 -13 -12 -18 -23 -15 -13 5 -14 4 -3 -4 7 -5 21 -8 30
-7 9 2 24 4 34 4 10 1 15 6 12 11 -4 6 -11 8 -16 5 -5 -4 -9 1 -9 9 0 23 -17
20 -25 -3z"/>
<path d="M1128 544 c-30 -16 -35 -29 -15 -37 7 -3 6 -6 -5 -6 -10 -1 -18 8
-20 21 -2 12 -10 23 -18 25 -12 4 -13 3 -1 -5 7 -5 11 -14 7 -20 -3 -6 4 -18
16 -26 12 -9 17 -16 10 -16 -7 0 -11 -4 -7 -9 4 -8 164 -5 172 3 1 1 -4 14
-12 28 -10 20 -10 28 -2 31 9 3 8 8 -2 18 -9 9 -11 9 -7 2 4 -7 2 -13 -3 -13
-6 0 -11 -6 -11 -14 0 -14 -29 -30 -38 -21 -3 3 3 12 14 21 18 15 18 15 -8 10
-78 -16 -84 -17 -62 -7 23 10 41 31 27 31 -4 -1 -20 -8 -35 -16z m32 -38 c0
-3 -4 -8 -10 -11 -5 -3 -10 -1 -10 4 0 6 5 11 10 11 6 0 10 -2 10 -4z"/>
<path d="M2145 550 c-3 -5 -2 -10 4 -10 5 0 13 5 16 10 3 6 2 10 -4 10 -5 0
-13 -4 -16 -10z"/>
<path d="M1365 520 c5 -8 -4 -13 -25 -12 -3 0 -11 -6 -17 -13 -10 -11 -10 -16
-1 -21 7 -4 14 -2 16 4 2 7 8 12 13 12 6 0 8 -4 4 -9 -6 -11 13 -26 22 -17 3
3 0 12 -6 20 -8 10 -9 16 -1 21 13 8 13 25 -1 25 -5 0 -7 -4 -4 -10z"/>
<path d="M1788 523 c6 -2 18 -2 25 0 6 3 1 5 -13 5 -14 0 -19 -2 -12 -5z"/>
<path d="M1272 494 c1 -9 9 -19 16 -22 9 -3 13 2 10 14 -1 9 -9 19 -16 22 -9
3 -13 -2 -10 -14z"/>
<path d="M1525 490 c-10 -11 -15 -23 -12 -26 8 -8 57 23 57 36 0 17 -26 11
-45 -10z"/>
<path d="M1470 493 c0 -7 -14 -9 -42 -6 -29 4 -39 3 -34 -5 4 -7 25 -12 46
-12 22 0 40 -5 43 -12 2 -7 6 -11 9 -8 3 3 -1 16 -9 30 -7 14 -13 20 -13 13z"/>
<path d="M803 444 c0 -17 5 -17 37 1 l25 14 -31 -1 c-19 -1 -31 -6 -31 -14z"/>
<path d="M965 430 c3 -5 8 -10 11 -10 2 0 4 5 4 10 0 6 -5 10 -11 10 -5 0 -7
-4 -4 -10z"/>
<path d="M1005 429 c-9 -14 -2 -20 14 -10 8 6 9 11 3 15 -6 3 -14 1 -17 -5z"/>
<path d="M1282 422 c2 -11 11 -16 23 -14 36 7 34 19 -4 27 -17 3 -21 0 -19
-13z"/>
<path d="M1821 414 c0 -11 3 -14 6 -6 3 7 2 16 -1 19 -3 4 -6 -2 -5 -13z"/>
<path d="M1446 411 c-11 -4 -20 -15 -22 -24 -3 -22 -2 -22 30 8 28 26 26 29
-8 16z"/>
<path d="M1525 360 c-3 -6 1 -7 9 -4 18 7 21 14 7 14 -6 0 -13 -4 -16 -10z"/>
<path d="M1490 350 c0 -5 5 -10 10 -10 6 0 10 5 10 10 0 6 -4 10 -10 10 -5 0
-10 -4 -10 -10z"/>
</g>
</svg>
